<svg data-v-70b83f88="" version="1.0" xmlns="http://www.w3.org/2000/svg" xmlns:xlink="http://www.w3.org/1999/xlink" width="100%" height="100%" viewBox="0 0 340.000000 250.000000" preserveAspectRatio="xMidYMid meet" color-interpolation-filters="sRGB" style="margin: auto;"> <rect data-v-70b83f88="" x="0" y="0" width="100%" height="100%" fill="#ffffff" fill-opacity="0" class="background"></rect> <rect data-v-70b83f88="" x="0" y="0" width="100%" height="100%" fill="url(#watermark)" fill-opacity="1" class="watermarklayer"></rect> <g data-v-70b83f88="" fill="#4a93fa" class="icon-text-wrapper icon-svg-group iconsvg" transform="translate(47.144996643066406,96.81510734558105)"><g class="iconsvg-imagesvg" transform="matrix(1,0,0,1,0,0)" opacity="1"><g><rect fill="#4a93fa" fill-opacity="0" stroke-width="2" x="0" y="0" width="60" height="56.36978579481398" class="image-rect"></rect> <svg filter="url(#colors3601592190)" x="0" y="0" width="60" height="56.36978579481398" filtersec="colorsf3735290088" class="image-svg-svg primary" style="overflow: visible;"><svg fill="#000000" xmlns="http://www.w3.org/2000/svg" xmlns:xlink="http://www.w3.org/1999/xlink" version="1.1" x="0px" y="0px" viewBox="-2 -1.032 36 34.064" enable-background="new 0 0 32 32" xml:space="preserve"><g display="none"><g display="inline"><polygon fill="#000000" stroke="#000000" stroke-miterlimit="10" points="14.568,15.699 0.5,29.489 0.5,16.278 14.568,2.511   "></polygon><polygon fill="#000000" stroke="#000000" stroke-miterlimit="10" points="31.5,16.301 17.432,2.511 17.432,15.722 31.5,29.489   "></polygon></g></g><g><path d="M0,31.032L15.339,16.14V0.97L0,15.838V31.032z M2,16.685l11.339-10.99v9.6L2,26.303V16.685z"></path><path d="M16.661,16.163L32,31.03V15.86L16.661,0.968V16.163z M18.661,5.697L30,16.706v9.6l-11.339-10.99V5.697z"></path></g><g display="none"><path display="inline" d="M1.522,29.348c4.553-4.461,9.106-8.921,13.659-13.382c0.103-0.061,0.174-0.141,0.203-0.236   c0.04-0.071,0.053-0.135,0.025-0.185c0-4.269,0-8.537,0-12.806c0-0.536-0.831-0.313-1.061-0.087   c-1.942,1.899-3.883,3.798-5.825,5.697C6.221,10.6,2.92,12.907,1.13,15.58c-2.097,3.133-0.67,9.846-0.67,13.681   C0.46,29.797,1.291,29.574,1.522,29.348z M2.609,15.351C5.975,11.233,10.335,7.649,14.24,3.95c0,3.906,0,7.812,0,11.718   c-4.214,4.128-8.428,8.257-12.641,12.385C1.415,23.968,0.437,18.008,2.609,15.351z"></path><path display="inline" d="M18.165,2.556c-0.239-0.234-1.118-0.128-1.118,0.299c0,3.096,0,6.193,0,9.289   c0,1.764-0.272,3.012,0.611,4.373c1.733,2.669,5.116,5.004,7.392,7.23c1.942,1.899,3.883,3.798,5.825,5.697   c0.239,0.234,1.118,0.128,1.118-0.299c0-4.296,0-8.593,0-12.889c0.022-0.067,0.019-0.135-0.048-0.2   C27.352,11.556,22.759,7.056,18.165,2.556z M19.253,16.553c-2.22-2.695-1.3-8.404-1.083-12.467   c4.219,4.134,8.439,8.268,12.658,12.401c0,3.804,0,7.608,0,11.412C26.937,24.215,22.623,20.644,19.253,16.553z"></path></g><g display="none"><g display="inline"><polygon fill="#000000" stroke="#000000" stroke-width="0.5" stroke-miterlimit="10" points="14.568,15.699 0.5,29.489 0.5,16.278     14.568,2.511   "></polygon><polygon fill="#000000" stroke="#000000" stroke-width="0.5" stroke-miterlimit="10" points="31.5,16.301 17.432,2.511     17.432,15.722 31.5,29.489   "></polygon></g></g><desc>Created with Snap</desc><defs></defs></svg></svg> <defs><filter id="colors3601592190"><feColorMatrix type="matrix" values="0 0 0 0 0.2890625  0 0 0 0 0.57421875  0 0 0 0 0.9765625  0 0 0 1 0" class="icon-fecolormatrix"></feColorMatrix></filter> <filter id="colorsf3735290088"><feColorMatrix type="matrix" values="0 0 0 0 0.99609375  0 0 0 0 0.99609375  0 0 0 0 0.99609375  0 0 0 1 0" class="icon-fecolormatrix"></feColorMatrix></filter> <filter id="colorsb2851521127"><feColorMatrix type="matrix" values="0 0 0 0 0  0 0 0 0 0  0 0 0 0 0  0 0 0 1 0" class="icon-fecolormatrix"></feColorMatrix></filter></defs></g></g> <g transform="translate(67,11.856893539428711)"><g data-gra="path-name" fill-rule="" class="tp-name iconsvg-namesvg" transform="matrix(1,0,0,1,0,0)" opacity="1"><g transform="scale(1)"><g><path d="M9.21-18.5L9.21-18.5 16.61-18.5Q17.78-18.5 18.57-17.12L18.57-17.12Q18.71-16.7 18.71-16.46L18.71-16.46 18.71-15.95Q18.71-14.84 17.32-14.09L17.32-14.09Q16.86-13.91 16.46-13.91L16.46-13.91 10.25-13.91Q6.55-13.91 4.93-10.81L4.93-10.81Q4.65-9.96 4.65-9.17L4.65-9.17Q4.65-6.66 7.51-5.14L7.51-5.14Q8.77-4.59 9.95-4.59L9.95-4.59 16.25-4.59Q18.05-4.59 18.67-2.88L18.67-2.88 18.71-2.52 18.71-2Q18.71-0.93 17.38-0.18L17.38-0.18Q17.01 0 16.68 0L16.68 0 8.98 0Q5.95 0 3.02-2.44L3.02-2.44Q1.35-4.13 0.99-5.1L0.99-5.1Q0-7.07 0-8.89L0-8.89 0-9.57Q0-12.88 2.76-15.81L2.76-15.81Q5.73-18.5 9.21-18.5ZM22.1-18.5L22.1-18.5 22.46-18.5Q23.38-18.5 24.49-17.26L24.49-17.26Q29.32-12.5 29.39-12.49L29.39-12.49Q35.1-18.21 35.29-18.21L35.29-18.21Q35.83-18.5 36.25-18.5L36.25-18.5 36.61-18.5Q37.83-18.5 38.57-17.08L38.57-17.08Q38.71-16.71 38.71-16.43L38.71-16.43 38.71-15.99Q38.71-15.01 37.02-13.59L37.02-13.59 31.68-8.31 31.68-2.15Q31.68-0.74 29.99-0.04L29.99-0.04 29.61 0 29.1 0Q27.96 0 27.19-1.42L27.19-1.42Q27.03-1.87 27.03-2.18L27.03-2.18 27.03-8.31Q20.35-14.88 20.34-14.97L20.34-14.97Q20-15.6 20-16.03L20-16.03 20-16.35Q20-17.63 21.43-18.36L21.43-18.36Q21.81-18.5 22.1-18.5ZM42.17-18.5L42.17-18.5 53.19-18.5Q55.55-18.5 57.54-16.28L57.54-16.28Q58.71-14.59 58.71-13.11L58.71-13.11 58.71-12.35Q58.71-10.86 57.57-9.25L57.57-9.25Q58.71-7.59 58.71-6.19L58.71-6.19 58.71-5.32Q58.71-3.56 57.08-1.72L57.08-1.72Q55.2 0 53.33 0L53.33 0 42.06 0Q40.89 0 40.14-1.42L40.14-1.42Q40-1.79 40-2.08L40-2.08 40-16.35Q40-17.75 41.65-18.43L41.65-18.43Q41.94-18.5 42.17-18.5ZM54.06-13.91L44.65-13.91 44.65-11.55 54.06-11.55 54.06-13.91ZM54.06-6.95L44.65-6.95 44.65-4.59 54.06-4.59 54.06-6.95ZM62.17-18.5L62.17-18.5 76.61-18.5Q77.79-18.5 78.57-17.12L78.57-17.12Q78.71-16.7 78.71-16.46L78.71-16.46 78.71-15.95Q78.71-14.84 77.32-14.09L77.32-14.09Q76.86-13.91 76.46-13.91L76.46-13.91 64.65-13.91 64.65-11.55 73.78-11.55Q75.52-11.55 76.13-10.17L76.13-10.17Q76.31-9.77 76.31-9.43L76.31-9.43 76.31-9.11Q76.31-7.7 74.66-7.03L74.66-7.03Q74.39-6.95 74.14-6.95L74.14-6.95 64.65-6.95 64.65-4.59 76.21-4.59Q78.25-4.59 78.71-2.62L78.71-2.62 78.71-2Q78.71-0.93 77.38-0.18L77.38-0.18Q77.01 0 76.68 0L76.68 0 62.06 0Q60.89 0 60.14-1.42L60.14-1.42Q60-1.79 60-2.08L60-2.08 60-16.35Q60-17.75 61.65-18.43L61.65-18.43Q61.94-18.5 62.17-18.5ZM82.17-18.5L82.17-18.5 93.19-18.5Q95.55-18.5 97.54-16.28L97.54-16.28Q98.71-14.59 98.71-13.11L98.71-13.11 98.71-12.35Q98.71-10.09 96.46-8.12L96.46-8.12Q95.1-7.24 94.28-7.1L94.28-7.1 94.28-7.07Q97.15-4.53 98.05-3.54L98.05-3.54Q98.45-2.86 98.45-2.26L98.45-2.26Q98.45-0.8 96.83-0.08L96.83-0.08Q96.5 0 96.35 0L96.35 0 95.83 0Q94.93 0 93.45-1.6L93.45-1.6Q92.93-2.03 87.59-6.95L87.59-6.95 84.65-6.95 84.65-2.22Q84.65-0.71 82.9-0.04L82.9-0.04Q82.71 0 82.58 0L82.58 0 82.06 0Q80.89 0 80.14-1.42L80.14-1.42Q80-1.79 80-2.08L80-2.08 80-16.35Q80-17.75 81.65-18.43L81.65-18.43Q81.94-18.5 82.17-18.5ZM94.06-13.91L84.65-13.91 84.65-11.51 94.06-11.51 94.06-13.91ZM106.43-18.5L106.43-18.5 116.58-18.5Q118-18.5 118.67-16.97L118.67-16.97Q118.71-16.77 118.71-16.65L118.71-16.65 118.71-15.95Q118.71-14.86 117.34-14.09L117.34-14.09Q116.8-13.91 116.46-13.91L116.46-13.91 104.67-13.91 104.67-11.59 111.69-11.59Q115.96-11.59 118.05-8.89L118.05-8.89Q118.71-7.87 118.71-7.17L118.71-7.17 118.71-4.41Q118.71-2.8 116.54-1.24L116.54-1.24Q114.46 0 112.46 0L112.46 0 102.03 0Q100.97 0 100.18-1.2L100.18-1.2Q100-1.59 100-1.9L100-1.9 100-2.4Q100-3.81 101.65-4.48L101.65-4.48Q102.03-4.59 102.5-4.59L102.5-4.59 114.08-4.59 114.08-6.92 106.66-6.92Q103.56-6.92 101.33-8.85L101.33-8.85Q100-10.18 100-11.55L100-11.55 100-13.88Q100-16.15 103.12-17.78L103.12-17.78Q104.94-18.5 106.43-18.5ZM129.19-18.5L129.19-18.5 129.59-18.5Q131.02-18.5 131.9-16.22L131.9-16.22Q138.52-3.17 138.71-2.66L138.71-2.66 138.71-1.96Q138.71-0.79 137.16-0.08L137.16-0.08Q136.83 0 136.62 0L136.62 0 136.28 0Q134.84 0 133.95-2.36L133.95-2.36Q129.39-11.37 129.33-11.42L129.33-11.42Q124.23-1.17 123.95-0.76L123.95-0.76Q123.19 0 122.37 0L122.37 0 122.05 0Q120.88 0 120.12-1.42L120.12-1.42Q120-1.83 120-2.08L120-2.08 120-2.36Q120-2.88 121.32-5.34L121.32-5.34 127.54-17.63Q128.27-18.5 129.19-18.5ZM142.17-18.5L142.17-18.5 156.61-18.5Q157.79-18.5 158.57-17.12L158.57-17.12Q158.71-16.7 158.71-16.46L158.71-16.46 158.71-15.95Q158.71-14.84 157.32-14.09L157.32-14.09Q156.86-13.91 156.46-13.91L156.46-13.91 144.65-13.91 144.65-11.55 153.92-11.55Q155.59-11.55 156.21-9.83L156.21-9.83Q156.28-9.56 156.28-9.33L156.28-9.33 156.28-9.17Q156.28-7.65 154.52-6.99L154.52-6.99 154.14-6.95 144.65-6.95 144.65-2.22Q144.65-0.71 142.9-0.04L142.9-0.04Q142.71 0 142.58 0L142.58 0 142.06 0Q140.89 0 140.14-1.42L140.14-1.42Q140-1.79 140-2.08L140-2.08 140-16.35Q140-17.75 141.65-18.43L141.65-18.43Q141.94-18.5 142.17-18.5ZM162.17-18.5L162.17-18.5 176.61-18.5Q177.79-18.5 178.57-17.12L178.57-17.12Q178.71-16.7 178.71-16.46L178.71-16.46 178.71-15.95Q178.71-14.84 177.32-14.09L177.32-14.09Q176.86-13.91 176.46-13.91L176.46-13.91 164.65-13.91 164.65-11.55 173.78-11.55Q175.52-11.55 176.13-10.17L176.13-10.17Q176.31-9.77 176.31-9.43L176.31-9.43 176.31-9.11Q176.31-7.7 174.66-7.03L174.66-7.03Q174.39-6.95 174.14-6.95L174.14-6.95 164.65-6.95 164.65-4.59 176.21-4.59Q178.25-4.59 178.71-2.62L178.71-2.62 178.71-2Q178.71-0.93 177.38-0.18L177.38-0.18Q177.01 0 176.68 0L176.68 0 162.06 0Q160.89 0 160.14-1.42L160.14-1.42Q160-1.79 160-2.08L160-2.08 160-16.35Q160-17.75 161.65-18.43L161.65-18.43Q161.94-18.5 162.17-18.5Z" transform="translate(0, 18.5)"></path></g> <!----> <!----> <!----> <!----> <!----> <!----> <!----></g></g> <g data-gra="path-slogan" fill-rule="" class="tp-slogan iconsvg-slogansvg" fill="#1378c0" transform="matrix(1,0,0,1,5,24.5)" opacity="1"><rect x="0" height="1" y="3.580000400543213" width="57.40500450134277"></rect> <rect height="1" y="3.580000400543213" width="57.40500450134277" x="111.30500221252441"></rect> <g transform="translate(60.40500450134277,0)"><g transform="scale(1)"><path d="M4.43-3.20L2.06-3.20L2.44-4.40C2.58-4.84 2.72-5.28 2.84-5.72C2.97-6.15 3.10-6.60 3.22-7.06L3.26-7.06C3.39-6.60 3.52-6.15 3.65-5.72C3.78-5.28 3.91-4.84 4.06-4.40ZM4.68-2.40L5.42 0L6.49 0L3.83-7.87L2.70-7.87L0.04 0L1.06 0L1.81-2.40ZM7.03-3.94C7.03-3.30 7.12-2.72 7.29-2.21C7.46-1.71 7.70-1.28 8.01-0.93C8.32-0.58 8.68-0.32 9.10-0.13C9.52 0.05 9.98 0.14 10.48 0.14C10.98 0.14 11.43 0.04 11.82-0.16C12.21-0.36 12.56-0.64 12.88-1.00L12.31-1.61C12.06-1.33 11.79-1.11 11.50-0.96C11.22-0.81 10.88-0.73 10.50-0.73C10.12-0.73 9.79-0.81 9.49-0.96C9.19-1.11 8.93-1.33 8.72-1.61C8.52-1.89 8.35-2.23 8.24-2.62C8.12-3.02 8.06-3.46 8.06-3.96C8.06-4.45 8.12-4.89 8.24-5.28C8.36-5.67 8.53-6.01 8.75-6.28C8.96-6.56 9.22-6.77 9.53-6.92C9.83-7.07 10.17-7.14 10.55-7.14C10.88-7.14 11.18-7.07 11.43-6.94C11.68-6.81 11.91-6.63 12.12-6.41L12.68-7.04C12.45-7.30 12.16-7.53 11.80-7.72C11.44-7.92 11.02-8.02 10.54-8.02C10.03-8.02 9.57-7.92 9.14-7.73C8.71-7.55 8.34-7.28 8.03-6.92C7.72-6.57 7.47-6.14 7.30-5.64C7.12-5.14 7.03-4.57 7.03-3.94ZM17.69-3.20L15.32-3.20L15.70-4.40C15.84-4.84 15.98-5.28 16.10-5.72C16.23-6.15 16.36-6.60 16.48-7.06L16.52-7.06C16.65-6.60 16.78-6.15 16.91-5.72C17.04-5.28 17.17-4.84 17.32-4.40ZM17.94-2.40L18.68 0L19.75 0L17.09-7.87L15.96-7.87L13.30 0L14.32 0L15.07-2.40ZM20.87-7.87L20.87 0L22.88 0C23.48 0 24.00-0.09 24.46-0.27C24.91-0.45 25.30-0.71 25.61-1.05C25.92-1.39 26.16-1.81 26.32-2.30C26.48-2.79 26.56-3.35 26.56-3.97C26.56-5.23 26.24-6.19 25.61-6.86C24.98-7.54 24.05-7.87 22.84-7.87ZM22.76-0.82L21.86-0.82L21.86-7.06L22.76-7.06C23.68-7.06 24.37-6.79 24.83-6.26C25.29-5.74 25.52-4.97 25.52-3.97C25.52-2.97 25.29-2.20 24.83-1.64C24.37-1.09 23.68-0.82 22.76-0.82ZM28.25-7.87L28.25 0L32.90 0L32.90-0.85L29.24-0.85L29.24-3.71L32.23-3.71L32.23-4.56L29.24-4.56L29.24-7.03L32.78-7.03L32.78-7.87ZM34.57-7.87L34.57 0L35.50 0L35.50-4.33C35.50-4.68 35.48-5.07 35.45-5.50C35.42-5.92 35.39-6.31 35.36-6.66L35.41-6.66L36.04-4.91L37.56-0.79L38.12-0.79L39.64-4.91L40.27-6.66L40.32-6.66C40.29-6.31 40.26-5.92 40.23-5.50C40.20-5.07 40.19-4.68 40.19-4.33L40.19 0L41.14 0L41.14-7.87L39.96-7.87L38.45-3.65L37.90-2.04L37.85-2.04L37.27-3.65L35.75-7.87ZM44.57-3.05L44.57 0L45.58 0L45.58-3.05L47.94-7.87L46.90-7.87L45.89-5.65C45.77-5.36 45.64-5.08 45.50-4.80C45.37-4.52 45.23-4.23 45.10-3.94L45.05-3.94C44.91-4.23 44.78-4.52 44.66-4.80C44.54-5.08 44.42-5.36 44.29-5.65L43.27-7.87L42.20-7.87Z" transform="translate(-0.036000000000000004, 8.016)"></path></g></g></g></g></g><defs v-gra="od"></defs></svg>